Coordinates
version=1
nRows=5
nColumns=46
inDegrees=yes

Units are S.I. units (second, meters, Newtons, ...)
Angles are in degrees.

endheader
time	pelvis_tilt	pelvis_list	pelvis_rotation	pelvis_tx	pelvis_ty	pelvis_tz	bb_angle	bb_tx	bb_ty	bb_tz	hip_flexion_r	hip_adduction_r	hip_rotation_r	knee_angle_r	knee_angle_r_beta	ankle_angle_r	subtalar_angle_r	mtp_angle_r	crank_angle_r	hip_flexion_l	hip_adduction_l	hip_rotation_l	knee_angle_l	knee_angle_l_beta	ankle_angle_l	subtalar_angle_l	mtp_angle_l	crank_angle_l	lumbar_extension	lumbar_bending	lumbar_rotation	arm_flex_r	arm_add_r	arm_rot_r	elbow_flex_r	pro_sup_r	wrist_flex_r	wrist_dev_r	arm_flex_l	arm_add_l	arm_rot_l	elbow_flex_l	pro_sup_l	wrist_flex_l	wrist_dev_l
      7.50000000	     -6.77550493	      1.51510343	      2.62140418	      0.10423203	      1.12331562	     -0.28560026	      0.00000000	      0.50000000	      0.00000000	      0.25000000	     58.99202478	     -8.93969828	      2.09047935	     98.99300069	      1.72775380	      5.58723262	     -7.38528230	      0.00000000	      0.00000000	     63.55333706	     -5.57029115	     -3.91707129	     64.40130757	      1.12401486	    -11.36403953	     -4.58799700	      0.00000000	      0.00000000	    -56.03216685	      2.08792407	     -3.69734060	     87.86313945	     -6.60187367	     61.23824913	     23.68991167	     38.53029940	      0.00000000	      0.00000000	     87.99697541	    -14.62921555	     66.52538832	     22.40925287	     43.26916396	      0.00000000	      0.00000000
      7.50500000	     -6.55236594	      1.55426948	      2.31742717	      0.10484232	      1.12386140	     -0.28541520	      0.00000000	      0.50000000	      0.00000000	      0.25000000	     59.63162462	     -8.62488964	      2.58162930	    100.44288570	      1.75305907	      7.02074234	     -6.83336944	      0.00000000	      0.00000000	     61.85962251	     -5.86055091	     -4.51868293	     62.58430912	      1.09230225	    -12.07987766	     -4.38759027	      0.00000000	      0.00000000	    -56.31526689	      1.87455100	     -3.52012586	     87.92266971	     -6.74636536	     61.19692070	     23.84689551	     38.53037268	      0.00000000	      0.00000000	     88.03351037	    -14.57469230	     66.78480093	     22.46333707	     43.28800927	      0.00000000	      0.00000000
      7.51000000	     -6.61617179	      1.13201825	      2.14212067	      0.10531777	      1.12368362	     -0.28585768	      0.00000000	      0.50000000	      0.00000000	      0.25000000	     60.54524813	     -8.18308579	      2.53140625	    101.81788275	      1.77705729	      8.04212091	     -6.94383101	      0.00000000	      0.00000000	     60.71602084	     -6.19654120	     -4.49216788	     61.01864865	      1.06497632	    -12.63966922	     -4.16236944	      0.00000000	      0.00000000	    -56.22682890	      2.20758878	     -3.13033980	     87.97840976	     -6.67837359	     61.13378033	     24.02012335	     38.54476887	      0.00000000	      0.00000000	     87.90260630	    -14.69399415	     66.78935270	     22.44885942	     43.27843243	      0.00000000	      0.00000000
      7.51500000	     -6.39545338	      1.15964964	      1.90527395	      0.10578400	      1.12418889	     -0.28602717	      0.00000000	      0.50000000	      0.00000000	      0.25000000	     61.23344112	     -7.97968700	      2.96302086	    103.24200260	      1.80191287	      9.54567491	     -6.18623495	      0.00000000	      0.00000000	     59.10715751	     -6.34247458	     -5.01834379	     59.31478861	      1.03523836	    -13.61798813	     -4.38124195	      0.00000000	      0.00000000	    -56.49061969	      2.13017862	     -2.96236425	     87.97228979	     -6.81316128	     61.10632707	     24.18751855	     38.54504395	      0.00000000	      0.00000000	     87.91696666	    -14.70374932	     67.06031356	     22.44604857	     43.28958987	      0.00000000	      0.00000000
      7.52000000	     -6.40113011	      0.87940269	      1.71969263	      0.10616733	      1.12426876	     -0.28625055	      0.00000000	      0.50000000	      0.00000000	      0.25000000	     62.12947219	     -7.61152772	      3.03223890	    104.56759055	      1.82504875	     10.78683267	     -5.95596388	      0.00000000	      0.00000000	     57.89374767	     -6.63821292	     -5.21717815	     57.76764985	      1.00823569	    -14.62576598	     -4.31067970	      0.00000000	      0.00000000	    -56.50744640	      2.31078176	     -2.65154063	     87.95563426	     -6.81062837	     61.07908383	     24.34719620	     38.55316741	      0.00000000	      0.00000000	     87.85105805	    -14.77207137	     67.16021035	     22.42931729	     43.28216240	      0.00000000	      0.00000000
